<mxfile host="app.diagrams.net" modified="2024-04-30T11:29:05.455Z" agent="Mozilla/5.0 (Windows NT 10.0; Win64; x64) AppleWebKit/537.36 (KHTML, like Gecko) Chrome/121.0.0.0 Safari/537.36 OPR/107.0.0.0" etag="Pt9Zke5mBeUQnlVXyeEb" version="24.3.0" type="device">
  <diagram name="Page-1" id="nKDNBoql_2cp9HiYUBMS">
    <mxGraphModel dx="3093" dy="789" grid="1" gridSize="10" guides="1" tooltips="1" connect="1" arrows="1" fold="1" page="1" pageScale="1" pageWidth="850" pageHeight="1100" math="0" shadow="0">
      <root>
        <mxCell id="0" />
        <mxCell id="1" parent="0" />
        <mxCell id="teySA3DlGUumxRbeVbpw-15" value="" style="endArrow=none;html=1;rounded=0;exitX=0.5;exitY=0;exitDx=0;exitDy=0;entryX=0.5;entryY=1;entryDx=0;entryDy=0;" parent="1" source="teySA3DlGUumxRbeVbpw-11" target="teySA3DlGUumxRbeVbpw-16" edge="1">
          <mxGeometry width="50" height="50" relative="1" as="geometry">
            <mxPoint x="290" y="300" as="sourcePoint" />
            <mxPoint x="330" y="250" as="targetPoint" />
          </mxGeometry>
        </mxCell>
        <mxCell id="teySA3DlGUumxRbeVbpw-16" value="&lt;u&gt;NIF&lt;/u&gt;" style="ellipse;whiteSpace=wrap;html=1;" parent="1" vertex="1">
          <mxGeometry x="385" y="140" width="90" height="60" as="geometry" />
        </mxCell>
        <mxCell id="teySA3DlGUumxRbeVbpw-17" value="Nome" style="ellipse;whiteSpace=wrap;html=1;" parent="1" vertex="1">
          <mxGeometry x="240" y="260" width="90" height="60" as="geometry" />
        </mxCell>
        <mxCell id="teySA3DlGUumxRbeVbpw-18" value="Morada" style="ellipse;whiteSpace=wrap;html=1;" parent="1" vertex="1">
          <mxGeometry x="330" y="220" width="90" height="60" as="geometry" />
        </mxCell>
        <mxCell id="teySA3DlGUumxRbeVbpw-19" value="Nº Telefone" style="ellipse;whiteSpace=wrap;html=1;" parent="1" vertex="1">
          <mxGeometry x="450" y="220" width="90" height="60" as="geometry" />
        </mxCell>
        <mxCell id="teySA3DlGUumxRbeVbpw-20" value="IBAN" style="ellipse;whiteSpace=wrap;html=1;verticalAlign=middle;" parent="1" vertex="1">
          <mxGeometry x="540" y="260" width="90" height="60" as="geometry" />
        </mxCell>
        <mxCell id="teySA3DlGUumxRbeVbpw-21" value="" style="endArrow=none;html=1;rounded=0;entryX=0.994;entryY=0.639;entryDx=0;entryDy=0;exitX=0;exitY=0;exitDx=0;exitDy=0;entryPerimeter=0;" parent="1" source="teySA3DlGUumxRbeVbpw-11" target="teySA3DlGUumxRbeVbpw-17" edge="1">
          <mxGeometry width="50" height="50" relative="1" as="geometry">
            <mxPoint x="390" y="320" as="sourcePoint" />
            <mxPoint x="440" y="270" as="targetPoint" />
          </mxGeometry>
        </mxCell>
        <mxCell id="teySA3DlGUumxRbeVbpw-22" value="" style="endArrow=none;html=1;rounded=0;entryX=0.678;entryY=0.957;entryDx=0;entryDy=0;exitX=0.25;exitY=0;exitDx=0;exitDy=0;entryPerimeter=0;" parent="1" source="teySA3DlGUumxRbeVbpw-11" target="teySA3DlGUumxRbeVbpw-18" edge="1">
          <mxGeometry width="50" height="50" relative="1" as="geometry">
            <mxPoint x="390" y="320" as="sourcePoint" />
            <mxPoint x="440" y="270" as="targetPoint" />
          </mxGeometry>
        </mxCell>
        <mxCell id="teySA3DlGUumxRbeVbpw-23" value="" style="endArrow=none;html=1;rounded=0;entryX=0.313;entryY=0.957;entryDx=0;entryDy=0;entryPerimeter=0;exitX=0.75;exitY=0;exitDx=0;exitDy=0;" parent="1" source="teySA3DlGUumxRbeVbpw-11" target="teySA3DlGUumxRbeVbpw-19" edge="1">
          <mxGeometry width="50" height="50" relative="1" as="geometry">
            <mxPoint x="320" y="300" as="sourcePoint" />
            <mxPoint x="370" y="250" as="targetPoint" />
          </mxGeometry>
        </mxCell>
        <mxCell id="teySA3DlGUumxRbeVbpw-24" value="" style="endArrow=none;html=1;rounded=0;entryX=0;entryY=0.5;entryDx=0;entryDy=0;exitX=1;exitY=0;exitDx=0;exitDy=0;" parent="1" source="teySA3DlGUumxRbeVbpw-11" target="teySA3DlGUumxRbeVbpw-20" edge="1">
          <mxGeometry width="50" height="50" relative="1" as="geometry">
            <mxPoint x="320" y="300" as="sourcePoint" />
            <mxPoint x="370" y="250" as="targetPoint" />
          </mxGeometry>
        </mxCell>
        <mxCell id="teySA3DlGUumxRbeVbpw-29" value="" style="shape=link;html=1;rounded=0;entryX=1;entryY=0.5;entryDx=0;entryDy=0;exitX=0.5;exitY=1;exitDx=0;exitDy=0;" parent="1" source="teySA3DlGUumxRbeVbpw-11" target="teySA3DlGUumxRbeVbpw-13" edge="1">
          <mxGeometry width="100" relative="1" as="geometry">
            <mxPoint x="300" y="360" as="sourcePoint" />
            <mxPoint x="370" y="400" as="targetPoint" />
          </mxGeometry>
        </mxCell>
        <mxCell id="teySA3DlGUumxRbeVbpw-11" value="Profissional de Saúde" style="rounded=0;whiteSpace=wrap;html=1;" parent="1" vertex="1">
          <mxGeometry x="370" y="310" width="120" height="60" as="geometry" />
        </mxCell>
        <mxCell id="teySA3DlGUumxRbeVbpw-13" value="x" style="triangle;whiteSpace=wrap;html=1;rotation=-90;textDirection=vertical-lr;" parent="1" vertex="1">
          <mxGeometry x="410" y="400" width="40" height="53.32" as="geometry" />
        </mxCell>
        <mxCell id="teySA3DlGUumxRbeVbpw-32" value="" style="endArrow=none;html=1;rounded=0;entryX=0;entryY=0.5;entryDx=0;entryDy=0;" parent="1" target="teySA3DlGUumxRbeVbpw-13" edge="1">
          <mxGeometry width="50" height="50" relative="1" as="geometry">
            <mxPoint x="430" y="480" as="sourcePoint" />
            <mxPoint x="420" y="460" as="targetPoint" />
          </mxGeometry>
        </mxCell>
        <mxCell id="teySA3DlGUumxRbeVbpw-33" value="" style="endArrow=none;html=1;rounded=0;" parent="1" edge="1">
          <mxGeometry width="50" height="50" relative="1" as="geometry">
            <mxPoint x="350" y="480" as="sourcePoint" />
            <mxPoint x="430" y="480" as="targetPoint" />
          </mxGeometry>
        </mxCell>
        <mxCell id="teySA3DlGUumxRbeVbpw-34" value="" style="endArrow=none;html=1;rounded=0;" parent="1" edge="1">
          <mxGeometry width="50" height="50" relative="1" as="geometry">
            <mxPoint x="430" y="480" as="sourcePoint" />
            <mxPoint x="510" y="480" as="targetPoint" />
          </mxGeometry>
        </mxCell>
        <mxCell id="teySA3DlGUumxRbeVbpw-35" value="" style="endArrow=none;html=1;rounded=0;" parent="1" edge="1">
          <mxGeometry width="50" height="50" relative="1" as="geometry">
            <mxPoint x="350" y="530" as="sourcePoint" />
            <mxPoint x="350" y="480" as="targetPoint" />
          </mxGeometry>
        </mxCell>
        <mxCell id="teySA3DlGUumxRbeVbpw-36" value="" style="endArrow=none;html=1;rounded=0;" parent="1" edge="1">
          <mxGeometry width="50" height="50" relative="1" as="geometry">
            <mxPoint x="510" y="530" as="sourcePoint" />
            <mxPoint x="510" y="480" as="targetPoint" />
          </mxGeometry>
        </mxCell>
        <mxCell id="teySA3DlGUumxRbeVbpw-37" value="Médico" style="rounded=0;whiteSpace=wrap;html=1;" parent="1" vertex="1">
          <mxGeometry x="290" y="530" width="120" height="60" as="geometry" />
        </mxCell>
        <mxCell id="teySA3DlGUumxRbeVbpw-38" value="Enfermeiro" style="rounded=0;whiteSpace=wrap;html=1;" parent="1" vertex="1">
          <mxGeometry x="450" y="530" width="120" height="60" as="geometry" />
        </mxCell>
        <mxCell id="teySA3DlGUumxRbeVbpw-39" value="" style="endArrow=none;html=1;rounded=0;entryX=0;entryY=0.5;entryDx=0;entryDy=0;exitX=1;exitY=1;exitDx=0;exitDy=0;" parent="1" source="teySA3DlGUumxRbeVbpw-40" target="teySA3DlGUumxRbeVbpw-37" edge="1">
          <mxGeometry width="50" height="50" relative="1" as="geometry">
            <mxPoint x="240" y="520" as="sourcePoint" />
            <mxPoint x="250" y="550" as="targetPoint" />
          </mxGeometry>
        </mxCell>
        <mxCell id="teySA3DlGUumxRbeVbpw-40" value="Especialidade" style="ellipse;whiteSpace=wrap;html=1;" parent="1" vertex="1">
          <mxGeometry x="170" y="470" width="90" height="60" as="geometry" />
        </mxCell>
        <mxCell id="teySA3DlGUumxRbeVbpw-1" value="Clínica" style="rounded=0;whiteSpace=wrap;html=1;" parent="1" vertex="1">
          <mxGeometry x="370" y="780" width="120" height="60" as="geometry" />
        </mxCell>
        <mxCell id="teySA3DlGUumxRbeVbpw-7" value="Morada" style="ellipse;whiteSpace=wrap;html=1;" parent="1" vertex="1">
          <mxGeometry x="385" y="870" width="90" height="60" as="geometry" />
        </mxCell>
        <mxCell id="teySA3DlGUumxRbeVbpw-9" value="" style="endArrow=none;html=1;rounded=0;entryX=0.5;entryY=0;entryDx=0;entryDy=0;" parent="1" target="teySA3DlGUumxRbeVbpw-7" edge="1">
          <mxGeometry width="50" height="50" relative="1" as="geometry">
            <mxPoint x="430" y="840" as="sourcePoint" />
            <mxPoint x="450" y="740" as="targetPoint" />
          </mxGeometry>
        </mxCell>
        <mxCell id="teySA3DlGUumxRbeVbpw-6" value="&lt;u&gt;Nome&lt;/u&gt;" style="ellipse;whiteSpace=wrap;html=1;" parent="1" vertex="1">
          <mxGeometry x="270" y="860" width="90" height="60" as="geometry" />
        </mxCell>
        <mxCell id="teySA3DlGUumxRbeVbpw-5" value="" style="endArrow=none;html=1;rounded=0;exitX=0;exitY=1;exitDx=0;exitDy=0;" parent="1" source="teySA3DlGUumxRbeVbpw-1" target="teySA3DlGUumxRbeVbpw-6" edge="1">
          <mxGeometry width="50" height="50" relative="1" as="geometry">
            <mxPoint x="340" y="920" as="sourcePoint" />
            <mxPoint x="390" y="870" as="targetPoint" />
          </mxGeometry>
        </mxCell>
        <mxCell id="teySA3DlGUumxRbeVbpw-8" value="Nº Telefone" style="ellipse;whiteSpace=wrap;html=1;" parent="1" vertex="1">
          <mxGeometry x="510" y="860" width="90" height="60" as="geometry" />
        </mxCell>
        <mxCell id="teySA3DlGUumxRbeVbpw-10" value="" style="endArrow=none;html=1;rounded=0;entryX=0;entryY=0;entryDx=0;entryDy=0;exitX=1;exitY=1;exitDx=0;exitDy=0;" parent="1" source="teySA3DlGUumxRbeVbpw-1" target="teySA3DlGUumxRbeVbpw-8" edge="1">
          <mxGeometry width="50" height="50" relative="1" as="geometry">
            <mxPoint x="400" y="800" as="sourcePoint" />
            <mxPoint x="450" y="750" as="targetPoint" />
          </mxGeometry>
        </mxCell>
        <mxCell id="teySA3DlGUumxRbeVbpw-45" value="" style="group" parent="1" vertex="1" connectable="0">
          <mxGeometry x="480" y="650" width="130" height="60" as="geometry" />
        </mxCell>
        <mxCell id="teySA3DlGUumxRbeVbpw-43" value="" style="rhombus;whiteSpace=wrap;html=1;" parent="teySA3DlGUumxRbeVbpw-45" vertex="1">
          <mxGeometry width="60" height="60" as="geometry" />
        </mxCell>
        <mxCell id="teySA3DlGUumxRbeVbpw-44" value="alocado &amp;gt;" style="text;html=1;align=center;verticalAlign=middle;whiteSpace=wrap;rounded=0;" parent="teySA3DlGUumxRbeVbpw-45" vertex="1">
          <mxGeometry x="70" y="15" width="60" height="30" as="geometry" />
        </mxCell>
        <mxCell id="teySA3DlGUumxRbeVbpw-48" value="" style="triangle;whiteSpace=wrap;html=1;rotation=90;fillColor=#000000;" parent="1" vertex="1">
          <mxGeometry x="503.13" y="633.13" width="13.75" height="20" as="geometry" />
        </mxCell>
        <mxCell id="teySA3DlGUumxRbeVbpw-49" value="" style="shape=link;html=1;rounded=0;exitX=0.5;exitY=1;exitDx=0;exitDy=0;entryX=0;entryY=0.5;entryDx=0;entryDy=0;" parent="1" source="teySA3DlGUumxRbeVbpw-38" target="teySA3DlGUumxRbeVbpw-48" edge="1">
          <mxGeometry width="100" relative="1" as="geometry">
            <mxPoint x="470" y="620" as="sourcePoint" />
            <mxPoint x="570" y="620" as="targetPoint" />
          </mxGeometry>
        </mxCell>
        <mxCell id="teySA3DlGUumxRbeVbpw-50" value="" style="endArrow=none;html=1;rounded=0;exitX=0.75;exitY=0;exitDx=0;exitDy=0;entryX=0.5;entryY=1;entryDx=0;entryDy=0;" parent="1" source="teySA3DlGUumxRbeVbpw-1" target="teySA3DlGUumxRbeVbpw-43" edge="1">
          <mxGeometry width="50" height="50" relative="1" as="geometry">
            <mxPoint x="420" y="750" as="sourcePoint" />
            <mxPoint x="470" y="700" as="targetPoint" />
            <Array as="points">
              <mxPoint x="460" y="740" />
              <mxPoint x="510" y="740" />
            </Array>
          </mxGeometry>
        </mxCell>
        <mxCell id="teySA3DlGUumxRbeVbpw-53" value="" style="group" parent="1" vertex="1" connectable="0">
          <mxGeometry x="323.13" y="653.13" width="113.74000000000001" height="53.74000000000001" as="geometry" />
        </mxCell>
        <mxCell id="teySA3DlGUumxRbeVbpw-51" value="" style="rhombus;whiteSpace=wrap;html=1;" parent="teySA3DlGUumxRbeVbpw-53" vertex="1">
          <mxGeometry width="53.74" height="53.74" as="geometry" />
        </mxCell>
        <mxCell id="teySA3DlGUumxRbeVbpw-52" value="alocado &amp;gt;" style="text;html=1;align=center;verticalAlign=middle;whiteSpace=wrap;rounded=0;" parent="teySA3DlGUumxRbeVbpw-53" vertex="1">
          <mxGeometry x="56.870000000000005" y="11.870000000000005" width="60" height="30" as="geometry" />
        </mxCell>
        <mxCell id="teySA3DlGUumxRbeVbpw-54" value="" style="endArrow=none;html=1;rounded=0;entryX=0.5;entryY=1;entryDx=0;entryDy=0;exitX=0.5;exitY=0;exitDx=0;exitDy=0;" parent="1" source="teySA3DlGUumxRbeVbpw-51" target="teySA3DlGUumxRbeVbpw-37" edge="1">
          <mxGeometry width="50" height="50" relative="1" as="geometry">
            <mxPoint x="200" y="680" as="sourcePoint" />
            <mxPoint x="250" y="630" as="targetPoint" />
          </mxGeometry>
        </mxCell>
        <mxCell id="teySA3DlGUumxRbeVbpw-55" value="" style="endArrow=none;html=1;rounded=0;entryX=0.5;entryY=1;entryDx=0;entryDy=0;exitX=0.25;exitY=0;exitDx=0;exitDy=0;" parent="1" source="teySA3DlGUumxRbeVbpw-1" target="teySA3DlGUumxRbeVbpw-51" edge="1">
          <mxGeometry width="50" height="50" relative="1" as="geometry">
            <mxPoint x="200" y="680" as="sourcePoint" />
            <mxPoint x="250" y="630" as="targetPoint" />
            <Array as="points">
              <mxPoint x="400" y="740" />
              <mxPoint x="350" y="740" />
            </Array>
          </mxGeometry>
        </mxCell>
        <mxCell id="teySA3DlGUumxRbeVbpw-56" value="Dia da semana" style="ellipse;whiteSpace=wrap;html=1;" parent="1" vertex="1">
          <mxGeometry x="180" y="650" width="90" height="60" as="geometry" />
        </mxCell>
        <mxCell id="teySA3DlGUumxRbeVbpw-57" value="" style="endArrow=none;html=1;rounded=0;entryX=0;entryY=0.5;entryDx=0;entryDy=0;exitX=1;exitY=0.5;exitDx=0;exitDy=0;" parent="1" source="teySA3DlGUumxRbeVbpw-56" target="teySA3DlGUumxRbeVbpw-51" edge="1">
          <mxGeometry width="50" height="50" relative="1" as="geometry">
            <mxPoint x="410" y="810" as="sourcePoint" />
            <mxPoint x="460" y="760" as="targetPoint" />
          </mxGeometry>
        </mxCell>
        <mxCell id="teySA3DlGUumxRbeVbpw-58" value="(IC - 1)" style="text;html=1;align=center;verticalAlign=middle;whiteSpace=wrap;rounded=0;fontStyle=1" parent="1" vertex="1">
          <mxGeometry x="345" y="610" width="60" height="30" as="geometry" />
        </mxCell>
        <mxCell id="teySA3DlGUumxRbeVbpw-59" value="&lt;b&gt;(IC - 1):&lt;/b&gt; Para um dado dia da semana, cada médico só pode estar alocado no máximo a uma única clínica" style="text;html=1;align=center;verticalAlign=middle;whiteSpace=wrap;rounded=0;fontSize=14;" parent="1" vertex="1">
          <mxGeometry x="160" y="1060" width="680" height="30" as="geometry" />
        </mxCell>
        <mxCell id="teySA3DlGUumxRbeVbpw-62" value="Paciente" style="rounded=0;whiteSpace=wrap;html=1;" parent="1" vertex="1">
          <mxGeometry x="-240" y="140" width="120" height="60" as="geometry" />
        </mxCell>
        <mxCell id="teySA3DlGUumxRbeVbpw-63" value="Morada" style="ellipse;whiteSpace=wrap;html=1;" parent="1" vertex="1">
          <mxGeometry x="-400" y="150" width="90" height="60" as="geometry" />
        </mxCell>
        <mxCell id="teySA3DlGUumxRbeVbpw-64" value="&lt;u&gt;Nº SNS&lt;/u&gt;" style="ellipse;whiteSpace=wrap;html=1;" parent="1" vertex="1">
          <mxGeometry x="-225" y="10" width="90" height="60" as="geometry" />
        </mxCell>
        <mxCell id="teySA3DlGUumxRbeVbpw-65" value="NIF" style="ellipse;whiteSpace=wrap;html=1;" parent="1" vertex="1">
          <mxGeometry x="-390" y="80" width="90" height="60" as="geometry" />
        </mxCell>
        <mxCell id="teySA3DlGUumxRbeVbpw-66" value="Nome" style="ellipse;whiteSpace=wrap;html=1;" parent="1" vertex="1">
          <mxGeometry x="-20" y="70" width="90" height="60" as="geometry" />
        </mxCell>
        <mxCell id="teySA3DlGUumxRbeVbpw-67" value="Data de nascimento" style="ellipse;whiteSpace=wrap;html=1;" parent="1" vertex="1">
          <mxGeometry x="-110" y="30" width="90" height="60" as="geometry" />
        </mxCell>
        <mxCell id="teySA3DlGUumxRbeVbpw-68" value="Nº Telemóvel" style="ellipse;whiteSpace=wrap;html=1;" parent="1" vertex="1">
          <mxGeometry x="-330" y="20" width="90" height="60" as="geometry" />
        </mxCell>
        <mxCell id="teySA3DlGUumxRbeVbpw-69" value="" style="endArrow=none;html=1;rounded=0;entryX=0.5;entryY=1;entryDx=0;entryDy=0;exitX=0.5;exitY=0;exitDx=0;exitDy=0;" parent="1" source="teySA3DlGUumxRbeVbpw-62" target="teySA3DlGUumxRbeVbpw-64" edge="1">
          <mxGeometry width="50" height="50" relative="1" as="geometry">
            <mxPoint x="-40" y="250" as="sourcePoint" />
            <mxPoint x="10" y="200" as="targetPoint" />
          </mxGeometry>
        </mxCell>
        <mxCell id="teySA3DlGUumxRbeVbpw-70" value="" style="endArrow=none;html=1;rounded=0;entryX=0.5;entryY=1;entryDx=0;entryDy=0;exitX=0.794;exitY=0.01;exitDx=0;exitDy=0;exitPerimeter=0;" parent="1" source="teySA3DlGUumxRbeVbpw-62" target="teySA3DlGUumxRbeVbpw-67" edge="1">
          <mxGeometry width="50" height="50" relative="1" as="geometry">
            <mxPoint x="-40" y="250" as="sourcePoint" />
            <mxPoint x="10" y="200" as="targetPoint" />
          </mxGeometry>
        </mxCell>
        <mxCell id="teySA3DlGUumxRbeVbpw-71" value="" style="endArrow=none;html=1;rounded=0;entryX=0.717;entryY=0.968;entryDx=0;entryDy=0;exitX=0.25;exitY=0;exitDx=0;exitDy=0;entryPerimeter=0;" parent="1" source="teySA3DlGUumxRbeVbpw-62" target="teySA3DlGUumxRbeVbpw-68" edge="1">
          <mxGeometry width="50" height="50" relative="1" as="geometry">
            <mxPoint x="-40" y="250" as="sourcePoint" />
            <mxPoint x="10" y="200" as="targetPoint" />
          </mxGeometry>
        </mxCell>
        <mxCell id="teySA3DlGUumxRbeVbpw-72" value="" style="endArrow=none;html=1;rounded=0;exitX=1;exitY=0.5;exitDx=0;exitDy=0;entryX=0;entryY=0;entryDx=0;entryDy=0;" parent="1" source="teySA3DlGUumxRbeVbpw-65" target="teySA3DlGUumxRbeVbpw-62" edge="1">
          <mxGeometry width="50" height="50" relative="1" as="geometry">
            <mxPoint x="-10" y="310" as="sourcePoint" />
            <mxPoint x="40" y="260" as="targetPoint" />
          </mxGeometry>
        </mxCell>
        <mxCell id="teySA3DlGUumxRbeVbpw-73" value="" style="endArrow=none;html=1;rounded=0;entryX=0;entryY=0.5;entryDx=0;entryDy=0;exitX=1;exitY=0;exitDx=0;exitDy=0;" parent="1" source="teySA3DlGUumxRbeVbpw-62" target="teySA3DlGUumxRbeVbpw-66" edge="1">
          <mxGeometry width="50" height="50" relative="1" as="geometry">
            <mxPoint x="-10" y="310" as="sourcePoint" />
            <mxPoint x="40" y="260" as="targetPoint" />
          </mxGeometry>
        </mxCell>
        <mxCell id="teySA3DlGUumxRbeVbpw-74" value="" style="endArrow=none;html=1;rounded=0;entryX=0;entryY=0.5;entryDx=0;entryDy=0;exitX=1;exitY=0.5;exitDx=0;exitDy=0;" parent="1" source="teySA3DlGUumxRbeVbpw-63" target="teySA3DlGUumxRbeVbpw-62" edge="1">
          <mxGeometry width="50" height="50" relative="1" as="geometry">
            <mxPoint x="-10" y="310" as="sourcePoint" />
            <mxPoint x="40" y="260" as="targetPoint" />
          </mxGeometry>
        </mxCell>
        <mxCell id="teySA3DlGUumxRbeVbpw-75" value="SIstema de Saúde" style="rounded=0;whiteSpace=wrap;html=1;" parent="1" vertex="1">
          <mxGeometry x="-240" y="330" width="120" height="60" as="geometry" />
        </mxCell>
        <mxCell id="teySA3DlGUumxRbeVbpw-78" value="" style="shape=link;html=1;rounded=0;exitX=0.5;exitY=1;exitDx=0;exitDy=0;entryX=0.5;entryY=0;entryDx=0;entryDy=0;" parent="1" source="teySA3DlGUumxRbeVbpw-62" target="teySA3DlGUumxRbeVbpw-76" edge="1">
          <mxGeometry width="100" relative="1" as="geometry">
            <mxPoint x="-90" y="300" as="sourcePoint" />
            <mxPoint x="10" y="300" as="targetPoint" />
          </mxGeometry>
        </mxCell>
        <mxCell id="teySA3DlGUumxRbeVbpw-79" value="" style="endArrow=none;html=1;rounded=0;exitX=0.5;exitY=1;exitDx=0;exitDy=0;entryX=0.5;entryY=0;entryDx=0;entryDy=0;" parent="1" source="teySA3DlGUumxRbeVbpw-76" target="teySA3DlGUumxRbeVbpw-75" edge="1">
          <mxGeometry width="50" height="50" relative="1" as="geometry">
            <mxPoint x="-60" y="320" as="sourcePoint" />
            <mxPoint x="-10" y="270" as="targetPoint" />
          </mxGeometry>
        </mxCell>
        <mxCell id="teySA3DlGUumxRbeVbpw-81" value="" style="group" parent="1" vertex="1" connectable="0">
          <mxGeometry x="-210" y="230" width="115" height="60" as="geometry" />
        </mxCell>
        <mxCell id="teySA3DlGUumxRbeVbpw-76" value="" style="rhombus;whiteSpace=wrap;html=1;" parent="teySA3DlGUumxRbeVbpw-81" vertex="1">
          <mxGeometry width="60" height="60" as="geometry" />
        </mxCell>
        <mxCell id="teySA3DlGUumxRbeVbpw-80" value="tem &amp;gt;" style="text;html=1;align=center;verticalAlign=middle;whiteSpace=wrap;rounded=0;" parent="teySA3DlGUumxRbeVbpw-81" vertex="1">
          <mxGeometry x="55" y="15" width="60" height="30" as="geometry" />
        </mxCell>
        <mxCell id="teySA3DlGUumxRbeVbpw-82" value="" style="endArrow=none;html=1;rounded=0;entryX=0;entryY=0.25;entryDx=0;entryDy=0;exitX=1;exitY=0.5;exitDx=0;exitDy=0;" parent="1" source="teySA3DlGUumxRbeVbpw-84" target="teySA3DlGUumxRbeVbpw-75" edge="1">
          <mxGeometry width="50" height="50" relative="1" as="geometry">
            <mxPoint x="-290" y="470" as="sourcePoint" />
            <mxPoint x="-210" y="560" as="targetPoint" />
          </mxGeometry>
        </mxCell>
        <mxCell id="teySA3DlGUumxRbeVbpw-83" value="&lt;u&gt;Número do Sistema Nacional de Saúde&lt;/u&gt;" style="ellipse;whiteSpace=wrap;html=1;" parent="1" vertex="1">
          <mxGeometry x="-390" y="380" width="100" height="70" as="geometry" />
        </mxCell>
        <mxCell id="teySA3DlGUumxRbeVbpw-84" value="&lt;u&gt;Nome do Sistema&lt;/u&gt;" style="ellipse;whiteSpace=wrap;html=1;" parent="1" vertex="1">
          <mxGeometry x="-380.03999999999996" y="290" width="80.04" height="53.36" as="geometry" />
        </mxCell>
        <mxCell id="teySA3DlGUumxRbeVbpw-85" value="" style="endArrow=none;html=1;rounded=0;exitX=1;exitY=0.5;exitDx=0;exitDy=0;entryX=0;entryY=0.75;entryDx=0;entryDy=0;" parent="1" source="teySA3DlGUumxRbeVbpw-83" target="teySA3DlGUumxRbeVbpw-75" edge="1">
          <mxGeometry width="50" height="50" relative="1" as="geometry">
            <mxPoint x="-90" y="470" as="sourcePoint" />
            <mxPoint x="-40" y="420" as="targetPoint" />
          </mxGeometry>
        </mxCell>
        <mxCell id="teySA3DlGUumxRbeVbpw-86" value="TODO: ver este atributo&amp;gt;&lt;div&gt;Será atributo do paciente? (foreign key)&lt;/div&gt;" style="text;html=1;align=center;verticalAlign=middle;whiteSpace=wrap;rounded=0;" parent="1" vertex="1">
          <mxGeometry x="-640" y="390" width="270" height="40" as="geometry" />
        </mxCell>
        <mxCell id="OI-y8E8WUdn-grS2Yc1x-1" value="serviços de saude" style="rounded=0;whiteSpace=wrap;html=1;" vertex="1" parent="1">
          <mxGeometry x="-520" y="740" width="120" height="60" as="geometry" />
        </mxCell>
        <mxCell id="OI-y8E8WUdn-grS2Yc1x-2" value="" style="endArrow=none;html=1;rounded=0;exitX=0;exitY=0.5;exitDx=0;exitDy=0;entryX=1;entryY=0.5;entryDx=0;entryDy=0;" edge="1" parent="1" source="teySA3DlGUumxRbeVbpw-37" target="OI-y8E8WUdn-grS2Yc1x-3">
          <mxGeometry width="50" height="50" relative="1" as="geometry">
            <mxPoint x="90" y="570" as="sourcePoint" />
            <mxPoint x="290" y="570" as="targetPoint" />
          </mxGeometry>
        </mxCell>
        <mxCell id="OI-y8E8WUdn-grS2Yc1x-3" value="" style="rhombus;verticalAlign=top;" vertex="1" parent="1">
          <mxGeometry x="80" y="580" width="60" height="60" as="geometry" />
        </mxCell>
        <mxCell id="OI-y8E8WUdn-grS2Yc1x-4" value="realiza &amp;gt;" style="text;html=1;align=center;verticalAlign=middle;whiteSpace=wrap;rounded=0;" vertex="1" parent="1">
          <mxGeometry x="80" y="550" width="60" height="30" as="geometry" />
        </mxCell>
        <mxCell id="OI-y8E8WUdn-grS2Yc1x-5" value="" style="endArrow=none;html=1;rounded=0;entryX=0;entryY=0.5;entryDx=0;entryDy=0;exitX=1;exitY=0.5;exitDx=0;exitDy=0;" edge="1" parent="1" source="OI-y8E8WUdn-grS2Yc1x-6" target="OI-y8E8WUdn-grS2Yc1x-3">
          <mxGeometry width="50" height="50" relative="1" as="geometry">
            <mxPoint x="-50" y="580" as="sourcePoint" />
            <mxPoint x="110" y="580" as="targetPoint" />
          </mxGeometry>
        </mxCell>
        <mxCell id="OI-y8E8WUdn-grS2Yc1x-6" value="consulta" style="rounded=0;whiteSpace=wrap;html=1;" vertex="1" parent="1">
          <mxGeometry x="-95" y="653.13" width="115" height="60" as="geometry" />
        </mxCell>
        <mxCell id="OI-y8E8WUdn-grS2Yc1x-13" value="(IC-2)" style="text;html=1;align=center;verticalAlign=middle;whiteSpace=wrap;rounded=0;" vertex="1" parent="1">
          <mxGeometry x="160" y="555" width="60" height="30" as="geometry" />
        </mxCell>
        <mxCell id="OI-y8E8WUdn-grS2Yc1x-14" value="&lt;b&gt;(IC - 2):&lt;/b&gt; Para um determinado período de 30 minutos entre as 8:00 e as 20:00&lt;br&gt;dos dias úteis , cada médico só pode estar alocado no máximo a uma única consulta" style="text;html=1;align=left;verticalAlign=middle;whiteSpace=wrap;rounded=0;fontSize=14;" vertex="1" parent="1">
          <mxGeometry x="170" y="1090" width="680" height="30" as="geometry" />
        </mxCell>
        <mxCell id="OI-y8E8WUdn-grS2Yc1x-15" value="" style="endArrow=none;html=1;rounded=0;exitX=1;exitY=0.5;exitDx=0;exitDy=0;" edge="1" parent="1" source="teySA3DlGUumxRbeVbpw-62">
          <mxGeometry width="50" height="50" relative="1" as="geometry">
            <mxPoint x="120" y="530" as="sourcePoint" />
            <mxPoint x="-40" y="280" as="targetPoint" />
          </mxGeometry>
        </mxCell>
        <mxCell id="OI-y8E8WUdn-grS2Yc1x-17" value="" style="rhombus;whiteSpace=wrap;html=1;" vertex="1" parent="1">
          <mxGeometry x="-60" y="360" width="50" height="50" as="geometry" />
        </mxCell>
        <mxCell id="OI-y8E8WUdn-grS2Yc1x-18" value="marca &amp;gt;" style="text;html=1;align=center;verticalAlign=middle;whiteSpace=wrap;rounded=0;" vertex="1" parent="1">
          <mxGeometry x="-10" y="370" width="60" height="30" as="geometry" />
        </mxCell>
        <mxCell id="OI-y8E8WUdn-grS2Yc1x-19" value="" style="endArrow=none;html=1;rounded=0;exitX=0.5;exitY=1;exitDx=0;exitDy=0;entryX=0.5;entryY=0;entryDx=0;entryDy=0;" edge="1" parent="1" source="OI-y8E8WUdn-grS2Yc1x-17" target="OI-y8E8WUdn-grS2Yc1x-6">
          <mxGeometry width="50" height="50" relative="1" as="geometry">
            <mxPoint x="60" y="503.32" as="sourcePoint" />
            <mxPoint x="110" y="453.32" as="targetPoint" />
          </mxGeometry>
        </mxCell>
        <mxCell id="OI-y8E8WUdn-grS2Yc1x-20" value="" style="endArrow=classic;html=1;rounded=0;entryX=0.5;entryY=0;entryDx=0;entryDy=0;" edge="1" parent="1" target="OI-y8E8WUdn-grS2Yc1x-17">
          <mxGeometry width="50" height="50" relative="1" as="geometry">
            <mxPoint x="-40" y="280" as="sourcePoint" />
            <mxPoint x="170" y="480" as="targetPoint" />
          </mxGeometry>
        </mxCell>
        <mxCell id="OI-y8E8WUdn-grS2Yc1x-21" value="" style="rhombus;whiteSpace=wrap;html=1;" vertex="1" parent="1">
          <mxGeometry x="130" y="780" width="60" height="60" as="geometry" />
        </mxCell>
        <mxCell id="OI-y8E8WUdn-grS2Yc1x-22" value="aloca &amp;gt;" style="text;html=1;align=center;verticalAlign=middle;whiteSpace=wrap;rounded=0;" vertex="1" parent="1">
          <mxGeometry x="130" y="840" width="60" height="30" as="geometry" />
        </mxCell>
        <mxCell id="OI-y8E8WUdn-grS2Yc1x-25" value="" style="endArrow=none;html=1;rounded=0;exitX=0;exitY=0.5;exitDx=0;exitDy=0;entryX=1;entryY=0.5;entryDx=0;entryDy=0;" edge="1" parent="1" source="teySA3DlGUumxRbeVbpw-1" target="OI-y8E8WUdn-grS2Yc1x-21">
          <mxGeometry width="50" height="50" relative="1" as="geometry">
            <mxPoint x="120" y="730" as="sourcePoint" />
            <mxPoint x="170" y="680" as="targetPoint" />
          </mxGeometry>
        </mxCell>
        <mxCell id="OI-y8E8WUdn-grS2Yc1x-26" value="" style="endArrow=none;html=1;rounded=0;exitX=0;exitY=0.5;exitDx=0;exitDy=0;entryX=1;entryY=1;entryDx=0;entryDy=0;" edge="1" parent="1" source="OI-y8E8WUdn-grS2Yc1x-21" target="OI-y8E8WUdn-grS2Yc1x-6">
          <mxGeometry width="50" height="50" relative="1" as="geometry">
            <mxPoint x="120" y="730" as="sourcePoint" />
            <mxPoint x="170" y="680" as="targetPoint" />
          </mxGeometry>
        </mxCell>
        <mxCell id="OI-y8E8WUdn-grS2Yc1x-27" value="x" style="triangle;whiteSpace=wrap;html=1;rotation=-179;textDirection=vertical-lr;" vertex="1" parent="1">
          <mxGeometry x="-330" y="743.3399999999999" width="40" height="53.32" as="geometry" />
        </mxCell>
        <mxCell id="OI-y8E8WUdn-grS2Yc1x-28" value="" style="endArrow=none;html=1;rounded=0;exitX=1;exitY=0.5;exitDx=0;exitDy=0;entryX=1;entryY=0.5;entryDx=0;entryDy=0;" edge="1" parent="1" source="OI-y8E8WUdn-grS2Yc1x-1" target="OI-y8E8WUdn-grS2Yc1x-27">
          <mxGeometry width="50" height="50" relative="1" as="geometry">
            <mxPoint x="-415.02" y="880" as="sourcePoint" />
            <mxPoint x="-365.02" y="830" as="targetPoint" />
          </mxGeometry>
        </mxCell>
        <mxCell id="OI-y8E8WUdn-grS2Yc1x-29" value="" style="endArrow=none;html=1;rounded=0;exitX=0;exitY=0.5;exitDx=0;exitDy=0;" edge="1" parent="1" source="OI-y8E8WUdn-grS2Yc1x-27">
          <mxGeometry width="50" height="50" relative="1" as="geometry">
            <mxPoint x="-280" y="770" as="sourcePoint" />
            <mxPoint x="-240" y="770" as="targetPoint" />
          </mxGeometry>
        </mxCell>
        <mxCell id="OI-y8E8WUdn-grS2Yc1x-30" value="" style="endArrow=none;html=1;rounded=0;" edge="1" parent="1">
          <mxGeometry width="50" height="50" relative="1" as="geometry">
            <mxPoint x="-240" y="770" as="sourcePoint" />
            <mxPoint x="-240" y="680" as="targetPoint" />
          </mxGeometry>
        </mxCell>
        <mxCell id="OI-y8E8WUdn-grS2Yc1x-31" value="" style="endArrow=none;html=1;rounded=0;entryX=0;entryY=0.5;entryDx=0;entryDy=0;" edge="1" parent="1" target="OI-y8E8WUdn-grS2Yc1x-6">
          <mxGeometry width="50" height="50" relative="1" as="geometry">
            <mxPoint x="-240" y="683.13" as="sourcePoint" />
            <mxPoint x="-100" y="680" as="targetPoint" />
          </mxGeometry>
        </mxCell>
        <mxCell id="OI-y8E8WUdn-grS2Yc1x-32" value="" style="endArrow=none;html=1;rounded=0;" edge="1" parent="1">
          <mxGeometry width="50" height="50" relative="1" as="geometry">
            <mxPoint x="-240" y="840" as="sourcePoint" />
            <mxPoint x="-240" y="770" as="targetPoint" />
          </mxGeometry>
        </mxCell>
        <mxCell id="OI-y8E8WUdn-grS2Yc1x-33" value="" style="endArrow=none;html=1;rounded=0;entryX=0;entryY=0.5;entryDx=0;entryDy=0;" edge="1" parent="1" target="OI-y8E8WUdn-grS2Yc1x-34">
          <mxGeometry width="50" height="50" relative="1" as="geometry">
            <mxPoint x="-240" y="840" as="sourcePoint" />
            <mxPoint x="-110" y="840" as="targetPoint" />
          </mxGeometry>
        </mxCell>
        <mxCell id="OI-y8E8WUdn-grS2Yc1x-34" value="servico de enfermagem" style="rounded=0;whiteSpace=wrap;html=1;" vertex="1" parent="1">
          <mxGeometry x="-97.5" y="810" width="120" height="60" as="geometry" />
        </mxCell>
        <mxCell id="OI-y8E8WUdn-grS2Yc1x-35" value="" style="endArrow=none;html=1;rounded=0;exitX=1;exitY=0.5;exitDx=0;exitDy=0;" edge="1" parent="1" source="teySA3DlGUumxRbeVbpw-38">
          <mxGeometry width="50" height="50" relative="1" as="geometry">
            <mxPoint x="580" y="570" as="sourcePoint" />
            <mxPoint x="680" y="560" as="targetPoint" />
          </mxGeometry>
        </mxCell>
        <mxCell id="OI-y8E8WUdn-grS2Yc1x-36" value="" style="endArrow=none;html=1;rounded=0;" edge="1" parent="1">
          <mxGeometry width="50" height="50" relative="1" as="geometry">
            <mxPoint x="680" y="1000" as="sourcePoint" />
            <mxPoint x="680" y="560" as="targetPoint" />
          </mxGeometry>
        </mxCell>
        <mxCell id="OI-y8E8WUdn-grS2Yc1x-37" value="" style="endArrow=none;html=1;rounded=0;" edge="1" parent="1" target="OI-y8E8WUdn-grS2Yc1x-38">
          <mxGeometry width="50" height="50" relative="1" as="geometry">
            <mxPoint x="680" y="1000" as="sourcePoint" />
            <mxPoint x="680" y="1000" as="targetPoint" />
          </mxGeometry>
        </mxCell>
        <mxCell id="OI-y8E8WUdn-grS2Yc1x-38" value="" style="rhombus;whiteSpace=wrap;html=1;" vertex="1" parent="1">
          <mxGeometry x="210" y="980" width="50" height="50" as="geometry" />
        </mxCell>
        <mxCell id="OI-y8E8WUdn-grS2Yc1x-39" value="" style="endArrow=none;html=1;rounded=0;entryX=0;entryY=0.5;entryDx=0;entryDy=0;exitX=1;exitY=0.5;exitDx=0;exitDy=0;" edge="1" parent="1" source="OI-y8E8WUdn-grS2Yc1x-34" target="OI-y8E8WUdn-grS2Yc1x-38">
          <mxGeometry width="50" height="50" relative="1" as="geometry">
            <mxPoint x="140" y="1050" as="sourcePoint" />
            <mxPoint x="190" y="1000" as="targetPoint" />
          </mxGeometry>
        </mxCell>
        <mxCell id="OI-y8E8WUdn-grS2Yc1x-40" value="realiza &amp;gt;" style="text;html=1;align=center;verticalAlign=middle;whiteSpace=wrap;rounded=0;" vertex="1" parent="1">
          <mxGeometry x="210" y="950" width="60" height="30" as="geometry" />
        </mxCell>
        <mxCell id="OI-y8E8WUdn-grS2Yc1x-41" value="receita" style="rounded=0;whiteSpace=wrap;html=1;" vertex="1" parent="1">
          <mxGeometry x="-660" y="620" width="114.98" height="50" as="geometry" />
        </mxCell>
        <mxCell id="OI-y8E8WUdn-grS2Yc1x-42" value="&lt;u&gt;codigo do SNS&lt;/u&gt;" style="ellipse;whiteSpace=wrap;html=1;" vertex="1" parent="1">
          <mxGeometry x="-830" y="585" width="90" height="50" as="geometry" />
        </mxCell>
        <mxCell id="OI-y8E8WUdn-grS2Yc1x-43" value="" style="endArrow=none;html=1;rounded=0;exitX=1;exitY=0.5;exitDx=0;exitDy=0;entryX=0;entryY=0.5;entryDx=0;entryDy=0;" edge="1" parent="1" source="OI-y8E8WUdn-grS2Yc1x-42" target="OI-y8E8WUdn-grS2Yc1x-41">
          <mxGeometry width="50" height="50" relative="1" as="geometry">
            <mxPoint x="-560" y="930" as="sourcePoint" />
            <mxPoint x="-510" y="880" as="targetPoint" />
          </mxGeometry>
        </mxCell>
        <mxCell id="OI-y8E8WUdn-grS2Yc1x-44" value="medicamentos" style="ellipse;whiteSpace=wrap;html=1;" vertex="1" parent="1">
          <mxGeometry x="-830" y="655" width="90" height="50" as="geometry" />
        </mxCell>
        <mxCell id="OI-y8E8WUdn-grS2Yc1x-45" value="" style="endArrow=none;html=1;rounded=0;exitX=1;exitY=0.5;exitDx=0;exitDy=0;entryX=0;entryY=0.5;entryDx=0;entryDy=0;" edge="1" parent="1" source="OI-y8E8WUdn-grS2Yc1x-44" target="OI-y8E8WUdn-grS2Yc1x-41">
          <mxGeometry width="50" height="50" relative="1" as="geometry">
            <mxPoint x="-310" y="830" as="sourcePoint" />
            <mxPoint x="-260" y="780" as="targetPoint" />
          </mxGeometry>
        </mxCell>
        <mxCell id="OI-y8E8WUdn-grS2Yc1x-46" value="" style="endArrow=classic;html=1;rounded=0;exitX=0;exitY=0.25;exitDx=0;exitDy=0;" edge="1" parent="1" source="OI-y8E8WUdn-grS2Yc1x-6" target="OI-y8E8WUdn-grS2Yc1x-47">
          <mxGeometry width="50" height="50" relative="1" as="geometry">
            <mxPoint x="-310" y="630" as="sourcePoint" />
            <mxPoint x="-300" y="650" as="targetPoint" />
          </mxGeometry>
        </mxCell>
        <mxCell id="OI-y8E8WUdn-grS2Yc1x-47" value="" style="rhombus;whiteSpace=wrap;html=1;" vertex="1" parent="1">
          <mxGeometry x="-370" y="633.13" width="50" height="50" as="geometry" />
        </mxCell>
        <mxCell id="OI-y8E8WUdn-grS2Yc1x-48" value="tem &amp;gt;" style="text;html=1;align=center;verticalAlign=middle;whiteSpace=wrap;rounded=0;" vertex="1" parent="1">
          <mxGeometry x="-370" y="610" width="60" height="30" as="geometry" />
        </mxCell>
        <mxCell id="OI-y8E8WUdn-grS2Yc1x-49" value="" style="endArrow=none;html=1;rounded=0;exitX=1;exitY=0.5;exitDx=0;exitDy=0;entryX=0;entryY=0.5;entryDx=0;entryDy=0;" edge="1" parent="1" source="OI-y8E8WUdn-grS2Yc1x-41" target="OI-y8E8WUdn-grS2Yc1x-47">
          <mxGeometry width="50" height="50" relative="1" as="geometry">
            <mxPoint x="-310" y="630" as="sourcePoint" />
            <mxPoint x="-260" y="580" as="targetPoint" />
          </mxGeometry>
        </mxCell>
        <mxCell id="OI-y8E8WUdn-grS2Yc1x-53" value="" style="endArrow=none;html=1;rounded=0;exitX=0.25;exitY=0;exitDx=0;exitDy=0;" edge="1" parent="1" source="OI-y8E8WUdn-grS2Yc1x-6" target="OI-y8E8WUdn-grS2Yc1x-54">
          <mxGeometry width="50" height="50" relative="1" as="geometry">
            <mxPoint x="-310" y="530" as="sourcePoint" />
            <mxPoint x="-210" y="560" as="targetPoint" />
          </mxGeometry>
        </mxCell>
        <mxCell id="OI-y8E8WUdn-grS2Yc1x-54" value="" style="rhombus;whiteSpace=wrap;html=1;" vertex="1" parent="1">
          <mxGeometry x="-260" y="530" width="50" height="50" as="geometry" />
        </mxCell>
        <mxCell id="OI-y8E8WUdn-grS2Yc1x-55" value="regista &amp;gt;" style="text;html=1;align=center;verticalAlign=middle;whiteSpace=wrap;rounded=0;" vertex="1" parent="1">
          <mxGeometry x="-265" y="500" width="60" height="30" as="geometry" />
        </mxCell>
        <mxCell id="OI-y8E8WUdn-grS2Yc1x-56" value="" style="endArrow=none;html=1;rounded=0;exitX=0;exitY=0.5;exitDx=0;exitDy=0;" edge="1" parent="1" source="OI-y8E8WUdn-grS2Yc1x-54" target="OI-y8E8WUdn-grS2Yc1x-57">
          <mxGeometry width="50" height="50" relative="1" as="geometry">
            <mxPoint x="-310" y="530" as="sourcePoint" />
            <mxPoint x="-400" y="540" as="targetPoint" />
          </mxGeometry>
        </mxCell>
        <mxCell id="OI-y8E8WUdn-grS2Yc1x-57" value="sintomas" style="rounded=0;whiteSpace=wrap;html=1;" vertex="1" parent="1">
          <mxGeometry x="-480" y="505" width="90" height="50" as="geometry" />
        </mxCell>
        <mxCell id="OI-y8E8WUdn-grS2Yc1x-58" value="" style="endArrow=none;html=1;rounded=0;exitX=0;exitY=0.5;exitDx=0;exitDy=0;entryX=1;entryY=0.5;entryDx=0;entryDy=0;" edge="1" parent="1" source="OI-y8E8WUdn-grS2Yc1x-57" target="OI-y8E8WUdn-grS2Yc1x-59">
          <mxGeometry width="50" height="50" relative="1" as="geometry">
            <mxPoint x="-310" y="530" as="sourcePoint" />
            <mxPoint x="-590" y="520" as="targetPoint" />
          </mxGeometry>
        </mxCell>
        <mxCell id="OI-y8E8WUdn-grS2Yc1x-59" value="x" style="triangle;whiteSpace=wrap;html=1;rotation=5;textDirection=vertical-lr;" vertex="1" parent="1">
          <mxGeometry x="-630" y="488.3399999999999" width="40" height="53.32" as="geometry" />
        </mxCell>
        <mxCell id="OI-y8E8WUdn-grS2Yc1x-60" value="" style="endArrow=none;html=1;rounded=0;" edge="1" parent="1" target="OI-y8E8WUdn-grS2Yc1x-61">
          <mxGeometry width="50" height="50" relative="1" as="geometry">
            <mxPoint x="-630" y="510" as="sourcePoint" />
            <mxPoint x="-630" y="510" as="targetPoint" />
          </mxGeometry>
        </mxCell>
        <mxCell id="OI-y8E8WUdn-grS2Yc1x-61" value="sintomas qualitativo" style="rounded=0;whiteSpace=wrap;html=1;" vertex="1" parent="1">
          <mxGeometry x="-810" y="406.66" width="90" height="40" as="geometry" />
        </mxCell>
        <mxCell id="OI-y8E8WUdn-grS2Yc1x-62" value="" style="endArrow=none;html=1;rounded=0;exitX=0;exitY=0.5;exitDx=0;exitDy=0;entryX=1;entryY=0.5;entryDx=0;entryDy=0;" edge="1" parent="1" source="OI-y8E8WUdn-grS2Yc1x-61" target="OI-y8E8WUdn-grS2Yc1x-63">
          <mxGeometry width="50" height="50" relative="1" as="geometry">
            <mxPoint x="-700" y="400" as="sourcePoint" />
            <mxPoint x="-850" y="427" as="targetPoint" />
          </mxGeometry>
        </mxCell>
        <mxCell id="OI-y8E8WUdn-grS2Yc1x-63" value="nome" style="ellipse;whiteSpace=wrap;html=1;fontStyle=4" vertex="1" parent="1">
          <mxGeometry x="-920" y="406.65999999999997" width="70" height="43.32" as="geometry" />
        </mxCell>
        <mxCell id="OI-y8E8WUdn-grS2Yc1x-64" value="" style="endArrow=none;html=1;rounded=0;exitX=0;exitY=0.5;exitDx=0;exitDy=0;" edge="1" parent="1" source="OI-y8E8WUdn-grS2Yc1x-59" target="OI-y8E8WUdn-grS2Yc1x-65">
          <mxGeometry width="50" height="50" relative="1" as="geometry">
            <mxPoint x="-310" y="530" as="sourcePoint" />
            <mxPoint x="-750" y="500" as="targetPoint" />
          </mxGeometry>
        </mxCell>
        <mxCell id="OI-y8E8WUdn-grS2Yc1x-65" value="sintomas quantitativos" style="rounded=0;whiteSpace=wrap;html=1;" vertex="1" parent="1">
          <mxGeometry x="-805" y="493.32" width="80" height="40" as="geometry" />
        </mxCell>
        <mxCell id="OI-y8E8WUdn-grS2Yc1x-66" value="" style="endArrow=none;html=1;rounded=0;exitX=0;exitY=0.5;exitDx=0;exitDy=0;" edge="1" parent="1" source="OI-y8E8WUdn-grS2Yc1x-65" target="OI-y8E8WUdn-grS2Yc1x-67">
          <mxGeometry width="50" height="50" relative="1" as="geometry">
            <mxPoint x="-310" y="530" as="sourcePoint" />
            <mxPoint x="-850" y="470" as="targetPoint" />
          </mxGeometry>
        </mxCell>
        <mxCell id="OI-y8E8WUdn-grS2Yc1x-67" value="&lt;u&gt;valor&lt;/u&gt;" style="ellipse;whiteSpace=wrap;html=1;" vertex="1" parent="1">
          <mxGeometry x="-925" y="493.32" width="80" height="40" as="geometry" />
        </mxCell>
      </root>
    </mxGraphModel>
  </diagram>
</mxfile>
